<?xml version="1.0" encoding="utf-8"?>
<!-- Generator: Adobe Illustrator 19.0.0, SVG Export Plug-In . SVG Version: 6.00 Build 0)  -->
<svg version="1.1" id="Layer_1" xmlns="http://www.w3.org/2000/svg" xmlns:xlink="http://www.w3.org/1999/xlink" x="0px" y="0px"
	 viewBox="0 0 120 120" enable-background="new 0 0 120 120" xml:space="preserve">
<g id="XMLID_3_">
	<path id="XMLID_18_" fill-rule="evenodd" clip-rule="evenodd" fill="#22C0F8" d="M0,90c0,16.5,13.5,30,30,30h60
		c16.5,0,30-13.5,30-30V30c0-16.5-13.5-30-30-30H30C13.5,0,0,13.5,0,30V90z"/>
</g>
<g>
	<path id="XMLID_2_" fill-rule="evenodd" clip-rule="evenodd" fill="#FFFFFF" d="M85.2,36.8l-13.8-0.6v40c0,1.4-0.7,2.7-1.6,2.9
		l-19.8,3.7v12.1c0,1.6,0.9,2.7,2,2.5l33.2-6.8c0.8-0.2,1.5-1.4,1.5-2.8V39.4C86.7,38,86.1,36.9,85.2,36.8z"/>
	<path id="XMLID_1_" fill-rule="evenodd" clip-rule="evenodd" fill="#FFFFFF" d="M52.1,35.5l19.4,0.8v-9.7c0-1.4-0.7-2.6-1.6-2.6
		l-34.5-1.4c-1.1,0-2.1,1.3-2.1,2.9V83c0,1.6,0.9,2.8,2.1,2.6l14.7-2.8V38.3C50.1,36.7,51,35.4,52.1,35.5z"/>
</g>
</svg>
