<svg version="1.1" xmlns="http://www.w3.org/2000/svg" x="0px" y="0px" viewBox="0 0 16 16" enable-background="new 0 0 16 16"><path fill-rule="evenodd" clip-rule="evenodd" d="M12.043,4.293l-2.21-0.092v6.397c0,0.226-0.111,0.432-0.249,0.458l-3.172,0.596v1.939c0,0.258,0.144,0.439,0.319,0.404l5.312-1.083c0.131-0.027,0.237-0.229,0.237-0.45V4.705C12.28,4.484,12.174,4.299,12.043,4.293z"/><path fill-rule="evenodd" clip-rule="evenodd" d="M6.731,4.074l3.102,0.128V2.653c0-0.226-0.111-0.416-0.249-0.421L4.05,2C3.869,1.993,3.72,2.201,3.72,2.463v9.219c0,0.262,0.149,0.449,0.33,0.415l2.362-0.444V4.529C6.412,4.271,6.556,4.066,6.731,4.074z"/></svg>
